<svg width="21.000000" height="21.000000" fill="#9197B3" viewBox="0 0 21 21"  xmlns="http://www.w3.org/2000/svg" xmlns:xlink="http://www.w3.org/1999/xlink">
	<desc>
			Created with Pixso.
	</desc>
	<defs/>
	<path id="Vector" d="M7 0C2 0 0 2 0 7L0 13C0 16.78 1.14 18.85 3.85 19.62C4.08 17.02 6.75 14.97 10 14.97C13.25 14.97 15.92 17.02 16.14 19.62C18.86 18.85 20 16.78 20 13L20 7C20 2 18 0 13 0L7 0ZM6.41 8.57C6.41 6.6 8.02 5 10 5C11.98 5 13.58 6.6 13.58 8.57C13.58 10.56 11.98 12.17 10 12.17C8.02 12.17 6.41 10.56 6.41 8.57Z" stroke="#FFFFFF" stroke-opacity="1.000000" stroke-width="1.500000" stroke-linejoin="round"/>
</svg>
